<svg xmlns="http://www.w3.org/2000/svg" viewBox="0 0 32 32" fill="none">
  <!-- Envelope body -->
  <rect x="3" y="14" width="26" height="16" rx="2.5" fill="#1a1814" stroke="#fbbf24" stroke-width="1.5"/>
  <!-- Envelope flap fold lines -->
  <path d="M3 16.5L16 24L29 16.5" stroke="#fbbf24" stroke-width="1.5" stroke-linecap="round" stroke-linejoin="round"/>
  <!-- Cat head (peeking above envelope) -->
  <circle cx="16" cy="11.5" r="6.5" fill="#1a1814" stroke="#fbbf24" stroke-width="1.5"/>
  <!-- Cat ears (left) -->
  <path d="M10.5 7.5L9 2.5L14 5Z" fill="#1a1814" stroke="#fbbf24" stroke-width="1.5" stroke-linejoin="round"/>
  <!-- Cat ears (right) -->
  <path d="M21.5 7.5L23 2.5L18 5Z" fill="#1a1814" stroke="#fbbf24" stroke-width="1.5" stroke-linejoin="round"/>
  <!-- Cat eyes -->
  <circle cx="13.5" cy="11" r="1.1" fill="#fbbf24"/>
  <circle cx="18.5" cy="11" r="1.1" fill="#fbbf24"/>
  <!-- Cat nose -->
  <path d="M14.8 13.5L17.2 13.5L16 14.8Z" fill="#fbbf24"/>
  <!-- Cat mouth -->
  <path d="M16 14.8V15.8M16 15.8C16 15.8 14.5 15.8 13.8 14.8M16 15.8C16 15.8 17.5 15.8 18.2 14.8" stroke="#fbbf24" stroke-width="1" stroke-linecap="round"/>
  <!-- Whiskers (left) -->
  <path d="M6.5 12.5L10 13M6.8 15L10.2 14.5" stroke="#fbbf24" stroke-width="0.9" stroke-linecap="round"/>
  <!-- Whiskers (right) -->
  <path d="M25.5 12.5L22 13M25.2 15L21.8 14.5" stroke="#fbbf24" stroke-width="0.9" stroke-linecap="round"/>
</svg>
